<?xml version="1.0" encoding="UTF-8" standalone="no"?>
<!DOCTYPE svg PUBLIC "-//W3C//DTD SVG 1.1//EN"
 "http://www.w3.org/Graphics/SVG/1.1/DTD/svg11.dtd">
<!-- Generated by graphviz version 9.0.0 (20230911.1827)
 -->
<!-- Title: sbom Pages: 1 -->
<svg width="576pt" height="755pt"
 viewBox="0.00 0.00 576.00 755.26" xmlns="http://www.w3.org/2000/svg" xmlns:xlink="http://www.w3.org/1999/xlink">
<g id="graph0" class="graph" transform="scale(0.532717 0.532717) rotate(0) translate(4 1413.74)">
<title>sbom</title>
<polygon fill="white" stroke="none" points="-4,4 -4,-1413.74 1077.25,-1413.74 1077.25,4 -4,4"/>
<!-- fxgl -->
<g id="node1" class="node">
<title>fxgl</title>
<polygon fill="darkred" stroke="black" points="461.62,-1372.75 407.62,-1372.75 407.62,-1333.25 461.62,-1333.25 461.62,-1372.75"/>
<text text-anchor="middle" x="434.62" y="-1355.45" font-family="Times New Roman,serif" font-size="14.00" fill="white">fxgl</text>
<text text-anchor="middle" x="434.62" y="-1339.7" font-family="Times New Roman,serif" font-size="14.00" fill="white">MIT</text>
</g>
<!-- javafx&#45;fxml -->
<g id="node2" class="node">
<title>javafx&#45;fxml</title>
<polygon fill="royalblue" stroke="black" points="1073.25,-1156.75 866,-1156.75 866,-1117.25 1073.25,-1117.25 1073.25,-1156.75"/>
<text text-anchor="middle" x="969.62" y="-1139.45" font-family="Times New Roman,serif" font-size="14.00" fill="white">javafx&#45;fxml</text>
<text text-anchor="middle" x="969.62" y="-1123.7" font-family="Times New Roman,serif" font-size="14.00" fill="white">GPL&#45;2.0&#45;with&#45;classpath&#45;exception</text>
</g>
<!-- fxgl&#45;&gt;javafx&#45;fxml -->
<g id="edge1" class="edge">
<title>fxgl&#45;&gt;javafx&#45;fxml</title>
<path fill="none" stroke="black" d="M461.89,-1341.09C545,-1307.85 796.47,-1207.26 911.3,-1161.33"/>
<polygon fill="black" stroke="black" points="912.26,-1164.72 920.24,-1157.75 909.66,-1158.22 912.26,-1164.72"/>
</g>
<!-- fxgl&#45;core -->
<g id="node3" class="node">
<title>fxgl&#45;core</title>
<polygon fill="royalblue" stroke="black" points="511.75,-724.75 445.5,-724.75 445.5,-685.25 511.75,-685.25 511.75,-724.75"/>
<text text-anchor="middle" x="478.62" y="-707.45" font-family="Times New Roman,serif" font-size="14.00" fill="white">fxgl&#45;core</text>
<text text-anchor="middle" x="478.62" y="-691.7" font-family="Times New Roman,serif" font-size="14.00" fill="white">MIT</text>
</g>
<!-- fxgl&#45;&gt;fxgl&#45;core -->
<g id="edge2" class="edge">
<title>fxgl&#45;&gt;fxgl&#45;core</title>
<path fill="none" stroke="black" d="M461.92,-1337.88C514.53,-1309.57 631.23,-1241.26 704.62,-1156.75 775.81,-1074.8 792.53,-1046.12 818.62,-940.75 853.34,-800.61 623.28,-735.72 523.34,-714.38"/>
<polygon fill="black" stroke="black" points="524.09,-710.96 513.59,-712.36 522.67,-717.82 524.09,-710.96"/>
</g>
<!-- fxgl&#45;io -->
<g id="node4" class="node">
<title>fxgl&#45;io</title>
<polygon fill="royalblue" stroke="black" points="223.62,-940.75 169.62,-940.75 169.62,-901.25 223.62,-901.25 223.62,-940.75"/>
<text text-anchor="middle" x="196.62" y="-923.45" font-family="Times New Roman,serif" font-size="14.00" fill="white">fxgl&#45;io</text>
<text text-anchor="middle" x="196.62" y="-907.7" font-family="Times New Roman,serif" font-size="14.00" fill="white">MIT</text>
</g>
<!-- fxgl&#45;&gt;fxgl&#45;io -->
<g id="edge3" class="edge">
<title>fxgl&#45;&gt;fxgl&#45;io</title>
<path fill="none" stroke="black" d="M407.44,-1333.75C363.84,-1302.88 278.98,-1235.92 237.62,-1156.75 202.72,-1089.93 196.73,-999.3 196.18,-952.61"/>
<polygon fill="black" stroke="black" points="199.68,-952.7 196.15,-942.71 192.68,-952.72 199.68,-952.7"/>
</g>
<!-- fxgl&#45;entity -->
<g id="node5" class="node">
<title>fxgl&#45;entity</title>
<polygon fill="royalblue" stroke="black" points="351.38,-940.75 279.88,-940.75 279.88,-901.25 351.38,-901.25 351.38,-940.75"/>
<text text-anchor="middle" x="315.62" y="-923.45" font-family="Times New Roman,serif" font-size="14.00" fill="white">fxgl&#45;entity</text>
<text text-anchor="middle" x="315.62" y="-907.7" font-family="Times New Roman,serif" font-size="14.00" fill="white">MIT</text>
</g>
<!-- fxgl&#45;&gt;fxgl&#45;entity -->
<g id="edge4" class="edge">
<title>fxgl&#45;&gt;fxgl&#45;entity</title>
<path fill="none" stroke="black" d="M429.36,-1332.97C410.56,-1265.05 346.68,-1034.22 323.83,-951.66"/>
<polygon fill="black" stroke="black" points="327.28,-950.97 321.23,-942.27 320.53,-952.84 327.28,-950.97"/>
</g>
<!-- fxgl&#45;scene -->
<g id="node6" class="node">
<title>fxgl&#45;scene</title>
<polygon fill="royalblue" stroke="black" points="481.12,-940.75 408.12,-940.75 408.12,-901.25 481.12,-901.25 481.12,-940.75"/>
<text text-anchor="middle" x="444.62" y="-923.45" font-family="Times New Roman,serif" font-size="14.00" fill="white">fxgl&#45;scene</text>
<text text-anchor="middle" x="444.62" y="-907.7" font-family="Times New Roman,serif" font-size="14.00" fill="white">MIT</text>
</g>
<!-- fxgl&#45;&gt;fxgl&#45;scene -->
<g id="edge5" class="edge">
<title>fxgl&#45;&gt;fxgl&#45;scene</title>
<path fill="none" stroke="black" d="M435.07,-1332.97C436.64,-1265.18 441.99,-1035.16 443.92,-952.17"/>
<polygon fill="black" stroke="black" points="447.42,-952.4 444.15,-942.32 440.42,-952.24 447.42,-952.4"/>
</g>
<!-- fxgl&#45;gameplay -->
<g id="node7" class="node">
<title>fxgl&#45;gameplay</title>
<polygon fill="royalblue" stroke="black" points="556.62,-1156.75 462.62,-1156.75 462.62,-1117.25 556.62,-1117.25 556.62,-1156.75"/>
<text text-anchor="middle" x="509.62" y="-1139.45" font-family="Times New Roman,serif" font-size="14.00" fill="white">fxgl&#45;gameplay</text>
<text text-anchor="middle" x="509.62" y="-1123.7" font-family="Times New Roman,serif" font-size="14.00" fill="white">MIT</text>
</g>
<!-- fxgl&#45;&gt;fxgl&#45;gameplay -->
<g id="edge6" class="edge">
<title>fxgl&#45;&gt;fxgl&#45;gameplay</title>
<path fill="none" stroke="black" d="M441.28,-1333.01C454.37,-1295.65 483.56,-1212.37 499.22,-1167.68"/>
<polygon fill="black" stroke="black" points="502.48,-1168.97 502.48,-1158.38 495.87,-1166.66 502.48,-1168.97"/>
</g>
<!-- jackson&#45;databind -->
<g id="node8" class="node">
<title>jackson&#45;databind</title>
<polygon fill="royalblue" stroke="black" points="695.25,-1156.75 584,-1156.75 584,-1117.25 695.25,-1117.25 695.25,-1156.75"/>
<text text-anchor="middle" x="639.62" y="-1139.45" font-family="Times New Roman,serif" font-size="14.00" fill="white">jackson&#45;databind</text>
<text text-anchor="middle" x="639.62" y="-1123.7" font-family="Times New Roman,serif" font-size="14.00" fill="white">Apache&#45;2.0</text>
</g>
<!-- fxgl&#45;&gt;jackson&#45;databind -->
<g id="edge7" class="edge">
<title>fxgl&#45;&gt;jackson&#45;databind</title>
<path fill="none" stroke="black" d="M452.82,-1333.01C489.29,-1294.94 571.45,-1209.17 613.6,-1165.17"/>
<polygon fill="black" stroke="black" points="616.04,-1167.68 620.43,-1158.04 610.98,-1162.84 616.04,-1167.68"/>
</g>
<!-- lifecycle -->
<g id="node9" class="node">
<title>lifecycle</title>
<polygon fill="royalblue" stroke="black" points="93.25,-724.75 0,-724.75 0,-685.25 93.25,-685.25 93.25,-724.75"/>
<text text-anchor="middle" x="46.62" y="-707.45" font-family="Times New Roman,serif" font-size="14.00" fill="white">lifecycle</text>
<text text-anchor="middle" x="46.62" y="-691.7" font-family="Times New Roman,serif" font-size="14.00" fill="white">GPL&#45;3.0&#45;only</text>
</g>
<!-- fxgl&#45;&gt;lifecycle -->
<g id="edge8" class="edge">
<title>fxgl&#45;&gt;lifecycle</title>
<path fill="none" stroke="black" d="M407.28,-1333.84C362.17,-1302.62 271.87,-1234.55 218.62,-1156.75 121.86,-1015.36 69.92,-812.13 52.95,-736.16"/>
<polygon fill="black" stroke="black" points="56.41,-735.59 50.85,-726.57 49.57,-737.09 56.41,-735.59"/>
</g>
<!-- kotlin&#45;stdlib -->
<g id="node10" class="node">
<title>kotlin&#45;stdlib</title>
<polygon fill="royalblue" stroke="black" points="356.62,-508.75 274.62,-508.75 274.62,-469.25 356.62,-469.25 356.62,-508.75"/>
<text text-anchor="middle" x="315.62" y="-491.45" font-family="Times New Roman,serif" font-size="14.00" fill="white">kotlin&#45;stdlib</text>
<text text-anchor="middle" x="315.62" y="-475.7" font-family="Times New Roman,serif" font-size="14.00" fill="white">Apache&#45;2.0</text>
</g>
<!-- fxgl&#45;&gt;kotlin&#45;stdlib -->
<g id="edge9" class="edge">
<title>fxgl&#45;&gt;kotlin&#45;stdlib</title>
<path fill="none" stroke="black" d="M424.04,-1333.11C392.79,-1276.12 301.21,-1100.03 270.62,-940.75 240.56,-784.19 286.33,-592.94 306.68,-520.11"/>
<polygon fill="black" stroke="black" points="310.04,-521.1 309.41,-510.53 303.3,-519.18 310.04,-521.1"/>
</g>
<!-- javafx&#45;controls -->
<g id="node11" class="node">
<title>javafx&#45;controls</title>
<polygon fill="darkgreen" stroke="black" points="800.25,-724.75 593,-724.75 593,-685.25 800.25,-685.25 800.25,-724.75"/>
<text text-anchor="middle" x="696.62" y="-707.45" font-family="Times New Roman,serif" font-size="14.00" fill="white">javafx&#45;controls</text>
<text text-anchor="middle" x="696.62" y="-691.7" font-family="Times New Roman,serif" font-size="14.00" fill="white">GPL&#45;2.0&#45;with&#45;classpath&#45;exception</text>
</g>
<!-- javafx&#45;fxml&#45;&gt;javafx&#45;controls -->
<g id="edge10" class="edge">
<title>javafx&#45;fxml&#45;&gt;javafx&#45;controls</title>
<path fill="none" stroke="black" d="M961.68,-1117.03C944.24,-1076.17 900.24,-977.37 851.62,-901.25 810.97,-837.6 753.72,-770 721.39,-733.41"/>
<polygon fill="black" stroke="black" points="724.38,-731.5 715.12,-726.36 719.14,-736.16 724.38,-731.5"/>
</g>
<!-- fxgl&#45;core&#45;&gt;kotlin&#45;stdlib -->
<g id="edge16" class="edge">
<title>fxgl&#45;core&#45;&gt;kotlin&#45;stdlib</title>
<path fill="none" stroke="black" d="M464.16,-685.01C435.34,-647.17 370.65,-562.24 336.95,-518"/>
<polygon fill="black" stroke="black" points="339.82,-515.99 330.97,-510.15 334.25,-520.23 339.82,-515.99"/>
</g>
<!-- javafx&#45;graphics -->
<g id="node12" class="node">
<title>javafx&#45;graphics</title>
<polygon fill="darkgreen" stroke="black" points="838.25,-292.75 631,-292.75 631,-253.25 838.25,-253.25 838.25,-292.75"/>
<text text-anchor="middle" x="734.62" y="-275.45" font-family="Times New Roman,serif" font-size="14.00" fill="white">javafx&#45;graphics</text>
<text text-anchor="middle" x="734.62" y="-259.7" font-family="Times New Roman,serif" font-size="14.00" fill="white">GPL&#45;2.0&#45;with&#45;classpath&#45;exception</text>
</g>
<!-- fxgl&#45;core&#45;&gt;javafx&#45;graphics -->
<g id="edge13" class="edge">
<title>fxgl&#45;core&#45;&gt;javafx&#45;graphics</title>
<path fill="none" stroke="black" d="M512.23,-687.68C565.98,-659.55 669.85,-596.41 715.62,-508.75 750.27,-442.4 745.08,-350.9 739.31,-304.15"/>
<polygon fill="black" stroke="black" points="742.82,-303.95 738.02,-294.5 735.88,-304.88 742.82,-303.95"/>
</g>
<!-- javafx&#45;media -->
<g id="node14" class="node">
<title>javafx&#45;media</title>
<polygon fill="darkgreen" stroke="black" points="706.25,-508.75 499,-508.75 499,-469.25 706.25,-469.25 706.25,-508.75"/>
<text text-anchor="middle" x="602.62" y="-491.45" font-family="Times New Roman,serif" font-size="14.00" fill="white">javafx&#45;media</text>
<text text-anchor="middle" x="602.62" y="-475.7" font-family="Times New Roman,serif" font-size="14.00" fill="white">GPL&#45;2.0&#45;with&#45;classpath&#45;exception</text>
</g>
<!-- fxgl&#45;core&#45;&gt;javafx&#45;media -->
<g id="edge14" class="edge">
<title>fxgl&#45;core&#45;&gt;javafx&#45;media</title>
<path fill="none" stroke="black" d="M489.63,-685.01C511.41,-647.41 560.15,-563.31 585.92,-518.84"/>
<polygon fill="black" stroke="black" points="588.9,-520.67 590.89,-510.26 582.84,-517.16 588.9,-520.67"/>
</g>
<!-- audio -->
<g id="node15" class="node">
<title>audio</title>
<polygon fill="darkgreen" stroke="black" points="481.25,-508.75 388,-508.75 388,-469.25 481.25,-469.25 481.25,-508.75"/>
<text text-anchor="middle" x="434.62" y="-491.45" font-family="Times New Roman,serif" font-size="14.00" fill="white">audio</text>
<text text-anchor="middle" x="434.62" y="-475.7" font-family="Times New Roman,serif" font-size="14.00" fill="white">GPL&#45;3.0&#45;only</text>
</g>
<!-- fxgl&#45;core&#45;&gt;audio -->
<g id="edge15" class="edge">
<title>fxgl&#45;core&#45;&gt;audio</title>
<path fill="none" stroke="black" d="M474.72,-685.01C467.06,-647.73 449.99,-564.72 440.79,-519.97"/>
<polygon fill="black" stroke="black" points="444.27,-519.52 438.83,-510.43 437.41,-520.93 444.27,-519.52"/>
</g>
<!-- fxgl&#45;io&#45;&gt;fxgl&#45;core -->
<g id="edge23" class="edge">
<title>fxgl&#45;io&#45;&gt;fxgl&#45;core</title>
<path fill="none" stroke="black" d="M221.65,-901.01C272.34,-862.54 387.2,-775.38 444.62,-731.8"/>
<polygon fill="black" stroke="black" points="446.6,-734.7 452.45,-725.86 442.37,-729.12 446.6,-734.7"/>
</g>
<!-- fxgl&#45;io&#45;&gt;kotlin&#45;stdlib -->
<g id="edge26" class="edge">
<title>fxgl&#45;io&#45;&gt;kotlin&#45;stdlib</title>
<path fill="none" stroke="black" d="M198.61,-900.83C203.09,-860.4 215.38,-763.66 237.62,-685.25 254.81,-624.68 284.24,-557.1 301.62,-519.45"/>
<polygon fill="black" stroke="black" points="304.7,-521.12 305.75,-510.58 298.36,-518.17 304.7,-521.12"/>
</g>
<!-- util -->
<g id="node16" class="node">
<title>util</title>
<polygon fill="darkgreen" stroke="black" points="332.25,-76.75 239,-76.75 239,-37.25 332.25,-37.25 332.25,-76.75"/>
<text text-anchor="middle" x="285.62" y="-59.45" font-family="Times New Roman,serif" font-size="14.00" fill="white">util</text>
<text text-anchor="middle" x="285.62" y="-43.7" font-family="Times New Roman,serif" font-size="14.00" fill="white">GPL&#45;3.0&#45;only</text>
</g>
<!-- fxgl&#45;io&#45;&gt;util -->
<g id="edge25" class="edge">
<title>fxgl&#45;io&#45;&gt;util</title>
<path fill="none" stroke="black" d="M189.64,-900.8C161.23,-819.69 59.65,-498.09 140.62,-253.25 163.45,-184.22 221.18,-119.72 256.52,-84.88"/>
<polygon fill="black" stroke="black" points="258.73,-87.61 263.47,-78.14 253.86,-82.59 258.73,-87.61"/>
</g>
<!-- storage -->
<g id="node17" class="node">
<title>storage</title>
<polygon fill="darkgreen" stroke="black" points="495.25,-292.75 402,-292.75 402,-253.25 495.25,-253.25 495.25,-292.75"/>
<text text-anchor="middle" x="448.62" y="-275.45" font-family="Times New Roman,serif" font-size="14.00" fill="white">storage</text>
<text text-anchor="middle" x="448.62" y="-259.7" font-family="Times New Roman,serif" font-size="14.00" fill="white">GPL&#45;3.0&#45;only</text>
</g>
<!-- fxgl&#45;io&#45;&gt;storage -->
<g id="edge24" class="edge">
<title>fxgl&#45;io&#45;&gt;storage</title>
<path fill="none" stroke="black" d="M195.45,-901.14C192.27,-836.78 188.31,-621.33 265.62,-469.25 301.91,-397.87 372.29,-334.1 414.4,-300.05"/>
<polygon fill="black" stroke="black" points="416.37,-302.96 422.01,-293.99 412.01,-297.48 416.37,-302.96"/>
</g>
<!-- fxgl&#45;entity&#45;&gt;fxgl&#45;core -->
<g id="edge27" class="edge">
<title>fxgl&#45;entity&#45;&gt;fxgl&#45;core</title>
<path fill="none" stroke="black" d="M330.09,-901.01C358.91,-863.17 423.6,-778.24 457.3,-734"/>
<polygon fill="black" stroke="black" points="460,-736.23 463.28,-726.15 454.43,-731.99 460,-736.23"/>
</g>
<!-- fxgl&#45;entity&#45;&gt;kotlin&#45;stdlib -->
<g id="edge28" class="edge">
<title>fxgl&#45;entity&#45;&gt;kotlin&#45;stdlib</title>
<path fill="none" stroke="black" d="M315.62,-900.97C315.62,-833.18 315.62,-603.16 315.62,-520.17"/>
<polygon fill="black" stroke="black" points="319.13,-520.33 315.63,-510.33 312.13,-520.33 319.13,-520.33"/>
</g>
<!-- fxgl&#45;scene&#45;&gt;fxgl&#45;core -->
<g id="edge30" class="edge">
<title>fxgl&#45;scene&#45;&gt;fxgl&#45;core</title>
<path fill="none" stroke="black" d="M447.64,-901.01C453.55,-863.81 466.7,-781.07 473.82,-736.26"/>
<polygon fill="black" stroke="black" points="477.26,-736.87 475.38,-726.44 470.35,-735.77 477.26,-736.87"/>
</g>
<!-- fxgl&#45;scene&#45;&gt;kotlin&#45;stdlib -->
<g id="edge31" class="edge">
<title>fxgl&#45;scene&#45;&gt;kotlin&#45;stdlib</title>
<path fill="none" stroke="black" d="M441.58,-900.86C434.91,-860.48 417.67,-763.81 393.62,-685.25 375.15,-624.89 346.04,-556.98 329.1,-519.27"/>
<polygon fill="black" stroke="black" points="332.4,-518.06 325.08,-510.4 326.02,-520.95 332.4,-518.06"/>
</g>
<!-- fxgl&#45;scene&#45;&gt;javafx&#45;controls -->
<g id="edge29" class="edge">
<title>fxgl&#45;scene&#45;&gt;javafx&#45;controls</title>
<path fill="none" stroke="black" d="M466.99,-901.01C512.1,-862.7 614.08,-776.09 665.6,-732.35"/>
<polygon fill="black" stroke="black" points="667.8,-735.07 673.16,-725.93 663.27,-729.73 667.8,-735.07"/>
</g>
<!-- fxgl&#45;gameplay&#45;&gt;fxgl&#45;core -->
<g id="edge32" class="edge">
<title>fxgl&#45;gameplay&#45;&gt;fxgl&#45;core</title>
<path fill="none" stroke="black" d="M508.25,-1116.97C503.37,-1049.18 486.78,-819.16 480.8,-736.17"/>
<polygon fill="black" stroke="black" points="484.3,-736.04 480.09,-726.32 477.32,-736.55 484.3,-736.04"/>
</g>
<!-- fxgl&#45;gameplay&#45;&gt;fxgl&#45;scene -->
<g id="edge33" class="edge">
<title>fxgl&#45;gameplay&#45;&gt;fxgl&#45;scene</title>
<path fill="none" stroke="black" d="M503.86,-1117.01C492.51,-1079.65 467.21,-996.37 453.64,-951.68"/>
<polygon fill="black" stroke="black" points="457.08,-950.95 450.82,-942.4 450.38,-952.98 457.08,-950.95"/>
</g>
<!-- fxgl&#45;gameplay&#45;&gt;kotlin&#45;stdlib -->
<g id="edge36" class="edge">
<title>fxgl&#45;gameplay&#45;&gt;kotlin&#45;stdlib</title>
<path fill="none" stroke="black" d="M495.79,-1116.84C472.08,-1083.03 423.79,-1009.81 398.62,-940.75 343.26,-788.85 323.49,-594.12 317.7,-520.24"/>
<polygon fill="black" stroke="black" points="321.21,-520.27 316.97,-510.56 314.23,-520.8 321.21,-520.27"/>
</g>
<!-- fxgl&#45;gameplay&#45;&gt;javafx&#45;controls -->
<g id="edge34" class="edge">
<title>fxgl&#45;gameplay&#45;&gt;javafx&#45;controls</title>
<path fill="none" stroke="black" d="M511.95,-1117.02C517.43,-1076.15 533.31,-977.31 566.62,-901.25 594.94,-836.6 644.5,-770 673.56,-733.72"/>
<polygon fill="black" stroke="black" points="675.96,-736.32 679.53,-726.34 670.52,-731.91 675.96,-736.32"/>
</g>
<!-- jackson&#45;annotations -->
<g id="node20" class="node">
<title>jackson&#45;annotations</title>
<polygon fill="darkgreen" stroke="black" points="703.12,-940.75 576.12,-940.75 576.12,-901.25 703.12,-901.25 703.12,-940.75"/>
<text text-anchor="middle" x="639.62" y="-923.45" font-family="Times New Roman,serif" font-size="14.00" fill="white">jackson&#45;annotations</text>
<text text-anchor="middle" x="639.62" y="-907.7" font-family="Times New Roman,serif" font-size="14.00" fill="white">Apache&#45;2.0</text>
</g>
<!-- fxgl&#45;gameplay&#45;&gt;jackson&#45;annotations -->
<g id="edge35" class="edge">
<title>fxgl&#45;gameplay&#45;&gt;jackson&#45;annotations</title>
<path fill="none" stroke="black" d="M521.16,-1117.01C544.05,-1079.33 595.31,-994.95 622.28,-950.55"/>
<polygon fill="black" stroke="black" points="625.13,-952.61 627.33,-942.24 619.15,-948.97 625.13,-952.61"/>
</g>
<!-- jackson&#45;databind&#45;&gt;jackson&#45;annotations -->
<g id="edge37" class="edge">
<title>jackson&#45;databind&#45;&gt;jackson&#45;annotations</title>
<path fill="none" stroke="black" d="M639.62,-1117.01C639.62,-1079.81 639.62,-997.07 639.62,-952.26"/>
<polygon fill="black" stroke="black" points="643.13,-952.46 639.63,-942.46 636.13,-952.46 643.13,-952.46"/>
</g>
<!-- jackson&#45;core -->
<g id="node21" class="node">
<title>jackson&#45;core</title>
<polygon fill="darkgreen" stroke="black" points="809.62,-940.75 721.62,-940.75 721.62,-901.25 809.62,-901.25 809.62,-940.75"/>
<text text-anchor="middle" x="765.62" y="-923.45" font-family="Times New Roman,serif" font-size="14.00" fill="white">jackson&#45;core</text>
<text text-anchor="middle" x="765.62" y="-907.7" font-family="Times New Roman,serif" font-size="14.00" fill="white">Apache&#45;2.0</text>
</g>
<!-- jackson&#45;databind&#45;&gt;jackson&#45;core -->
<g id="edge38" class="edge">
<title>jackson&#45;databind&#45;&gt;jackson&#45;core</title>
<path fill="none" stroke="black" d="M650.81,-1117.01C672.94,-1079.41 722.46,-995.31 748.65,-950.84"/>
<polygon fill="black" stroke="black" points="751.64,-952.65 753.7,-942.25 745.61,-949.09 751.64,-952.65"/>
</g>
<!-- lifecycle&#45;&gt;util -->
<g id="edge39" class="edge">
<title>lifecycle&#45;&gt;util</title>
<path fill="none" stroke="black" d="M45.29,-684.86C41.59,-620.46 35.79,-407.09 107.62,-253.25 140.91,-181.96 209.5,-118.55 251.15,-84.46"/>
<polygon fill="black" stroke="black" points="253.34,-87.19 258.93,-78.19 248.94,-81.74 253.34,-87.19"/>
</g>
<!-- kotlin&#45;stdlib&#45;common -->
<g id="node18" class="node">
<title>kotlin&#45;stdlib&#45;common</title>
<polygon fill="darkgreen" stroke="black" points="383.62,-292.75 247.62,-292.75 247.62,-253.25 383.62,-253.25 383.62,-292.75"/>
<text text-anchor="middle" x="315.62" y="-275.45" font-family="Times New Roman,serif" font-size="14.00" fill="white">kotlin&#45;stdlib&#45;common</text>
<text text-anchor="middle" x="315.62" y="-259.7" font-family="Times New Roman,serif" font-size="14.00" fill="white">Apache&#45;2.0</text>
</g>
<!-- kotlin&#45;stdlib&#45;&gt;kotlin&#45;stdlib&#45;common -->
<g id="edge21" class="edge">
<title>kotlin&#45;stdlib&#45;&gt;kotlin&#45;stdlib&#45;common</title>
<path fill="none" stroke="black" d="M315.62,-469.01C315.62,-431.81 315.62,-349.07 315.62,-304.26"/>
<polygon fill="black" stroke="black" points="319.13,-304.46 315.63,-294.46 312.13,-304.46 319.13,-304.46"/>
</g>
<!-- annotations -->
<g id="node19" class="node">
<title>annotations</title>
<polygon fill="darkgreen" stroke="black" points="229.88,-292.75 149.38,-292.75 149.38,-253.25 229.88,-253.25 229.88,-292.75"/>
<text text-anchor="middle" x="189.62" y="-275.45" font-family="Times New Roman,serif" font-size="14.00" fill="white">annotations</text>
<text text-anchor="middle" x="189.62" y="-259.7" font-family="Times New Roman,serif" font-size="14.00" fill="white">Apache&#45;2.0</text>
</g>
<!-- kotlin&#45;stdlib&#45;&gt;annotations -->
<g id="edge22" class="edge">
<title>kotlin&#45;stdlib&#45;&gt;annotations</title>
<path fill="none" stroke="black" d="M304.44,-469.01C282.31,-431.41 232.79,-347.31 206.6,-302.84"/>
<polygon fill="black" stroke="black" points="209.64,-301.09 201.55,-294.25 203.61,-304.65 209.64,-301.09"/>
</g>
<!-- javafx&#45;controls&#45;&gt;javafx&#45;graphics -->
<g id="edge11" class="edge">
<title>javafx&#45;controls&#45;&gt;javafx&#45;graphics</title>
<path fill="none" stroke="black" d="M703.49,-684.94C715.52,-650.38 739.98,-574.84 748.62,-508.75 758.19,-435.7 747.31,-348.99 740.06,-304.18"/>
<polygon fill="black" stroke="black" points="743.53,-303.73 738.43,-294.44 736.63,-304.89 743.53,-303.73"/>
</g>
<!-- javafx&#45;base -->
<g id="node13" class="node">
<title>javafx&#45;base</title>
<polygon fill="darkgreen" stroke="black" points="838.25,-76.75 631,-76.75 631,-37.25 838.25,-37.25 838.25,-76.75"/>
<text text-anchor="middle" x="734.62" y="-59.45" font-family="Times New Roman,serif" font-size="14.00" fill="white">javafx&#45;base</text>
<text text-anchor="middle" x="734.62" y="-43.7" font-family="Times New Roman,serif" font-size="14.00" fill="white">GPL&#45;2.0&#45;with&#45;classpath&#45;exception</text>
</g>
<!-- javafx&#45;graphics&#45;&gt;javafx&#45;base -->
<g id="edge12" class="edge">
<title>javafx&#45;graphics&#45;&gt;javafx&#45;base</title>
<path fill="none" stroke="black" d="M734.62,-253.01C734.62,-215.81 734.62,-133.07 734.62,-88.26"/>
<polygon fill="black" stroke="black" points="738.13,-88.46 734.63,-78.46 731.13,-88.46 738.13,-88.46"/>
</g>
<!-- javafx&#45;media&#45;&gt;javafx&#45;graphics -->
<g id="edge17" class="edge">
<title>javafx&#45;media&#45;&gt;javafx&#45;graphics</title>
<path fill="none" stroke="black" d="M614.34,-469.01C637.58,-431.33 689.63,-346.95 717.01,-302.55"/>
<polygon fill="black" stroke="black" points="719.87,-304.59 722.14,-294.24 713.91,-300.91 719.87,-304.59"/>
</g>
<!-- audio&#45;&gt;util -->
<g id="edge18" class="edge">
<title>audio&#45;&gt;util</title>
<path fill="none" stroke="black" d="M449.3,-468.83C478.66,-428 538.98,-329.9 504.62,-253.25 469.3,-174.43 384.68,-114.36 331.58,-82.79"/>
<polygon fill="black" stroke="black" points="333.43,-79.82 323.03,-77.8 329.9,-85.86 333.43,-79.82"/>
</g>
<!-- audio&#45;&gt;storage -->
<g id="edge19" class="edge">
<title>audio&#45;&gt;storage</title>
<path fill="none" stroke="black" d="M435.87,-469.01C438.3,-431.81 443.71,-349.07 446.65,-304.26"/>
<polygon fill="black" stroke="black" points="450.13,-304.67 447.29,-294.46 443.14,-304.21 450.13,-304.67"/>
</g>
<!-- storage&#45;&gt;util -->
<g id="edge20" class="edge">
<title>storage&#45;&gt;util</title>
<path fill="none" stroke="black" d="M434.16,-253.01C405.34,-215.17 340.65,-130.24 306.95,-86"/>
<polygon fill="black" stroke="black" points="309.82,-83.99 300.97,-78.15 304.25,-88.23 309.82,-83.99"/>
</g>
</g>
</svg>
